PathFileType	4	(X/Y/Z)	G:\TennisProject\Miami_Dimitrov_Sinner_masked_Sports2D\Miami_Dimitrov_Sinner_masked_Sports2D_px_person00.trc
DataRate	CameraRate	NumFrames	NumMarkers	Units	OrigDataRate	OrigDataStartFrame	OrigNumFrames
25	25	6	22	m	25	187	499
Frame#	Time	Hip			RHip			RKnee			RAnkle			RBigToe			RSmallToe			RHeel			LHip			LKnee			LAnkle			LBigToe			LSmallToe			LHeel			Neck			Head			Nose			RShoulder			RElbow			RWrist			LShoulder			LElbow			LWrist		
		X1	Y1	Z1	X2	Y2	Z2	X3	Y3	Z3	X4	Y4	Z4	X5	Y5	Z5	X6	Y6	Z6	X7	Y7	Z7	X8	Y8	Z8	X9	Y9	Z9	X10	Y10	Z10	X11	Y11	Z11	X12	Y12	Z12	X13	Y13	Z13	X14	Y14	Z14	X15	Y15	Z15	X16	Y16	Z16	X17	Y17	Z17	X18	Y18	Z18	X19	Y19	Z19	X20	Y20	Z20	X21	Y21	Z21	X22	Y22	Z22
187	7.48	919.0586794727934	242.07461853806984	0.0	911.5310995277835	243.04376144747522	0.0	903.7955429800471	267.1920640849736	0.0	889.3613461410546	287.5924860182653	0.0	886.6149343417858	295.0025469487913	0.0	883.583354394587	294.09629665647253	0.0	888.7632322395923	291.179985752956	0.0	926.359808392794	241.67504549860732	0.0	940.3856191404409	264.4227928722964	0.0	955.4160626991988	284.83634238325124	0.0	961.2271566980312	293.4138640162626	0.0	963.9615799626613	291.43801949358635	0.0	956.7023786702576	288.55292420785645	0.0	917.7281193016462	209.032080263958	0.0	917.4295935866687	191.3057971745581	0.0	917.2413531866249	201.03047600913754	0.0	906.6970170475141	214.5756515297321	0.0	899.9868155183948	229.3762861802835	0.0	908.9771625843373	237.7658718034972	0.0	928.7700503079886	213.92482495105403	0.0	933.4723893555802	229.21724527700158	0.0	925.9568407029203	237.45978165352543	0.0
188	7.5200000000000005	925.6644225796966	242.1424054966895	0.0	918.2459456551517	243.53132813372594	0.0	909.1098130347268	267.37875652466533	0.0	892.6288068314341	287.9004379053395	0.0	887.8142817091151	295.17178540470354	0.0	885.234789101534	293.7986600343003	0.0	891.7578433871322	291.518175027157	0.0	933.2678856732034	242.15285323506936	0.0	946.0095632089483	264.85602840924906	0.0	959.4232952561894	286.56371557891333	0.0	963.38601417972	295.15245707670795	0.0	966.5166494491855	293.62938138586355	0.0	960.2819877048803	290.2255836543982	0.0	923.3829496227139	208.64511010634908	0.0	922.6516373081674	190.9633896717378	0.0	922.5251138093978	200.70178478873999	0.0	912.6285127001341	214.7510824897072	0.0	906.5667597704407	230.0150023947768	0.0	915.1815053651096	237.84770739636656	0.0	934.9059759644123	213.62468681500076	0.0	939.7712884294654	228.7601559768109	0.0	933.3346471130716	237.6620761821775	0.0
189	7.5600000000000005	931.0461334272297	241.34784460805628	0.0	923.94471420586	242.62194863838818	0.0	913.8303989916907	266.16385565828693	0.0	897.7149910748935	287.94095581338195	0.0	891.3705015216897	295.058852222091	0.0	889.3354959455495	293.4241753372993	0.0	897.1531119732871	291.78057265292597	0.0	938.7698873596553	241.42672795766276	0.0	949.2473897395456	264.28213359185753	0.0	960.1213891971433	286.605317203438	0.0	963.8375010353891	295.42480710829716	0.0	966.8691200564826	294.1234391257951	0.0	960.3628288971126	290.4388249492464	0.0	928.4299187286856	207.9018611066369	0.0	927.2924847206451	189.93968644832665	0.0	927.2655246903596	199.73988349751332	0.0	918.0088112987481	214.25090257385799	0.0	912.2416947048665	229.51034540279994	0.0	920.5078813115085	237.20191483918074	0.0	939.8520749057801	212.6550235123961	0.0	945.2108429324871	227.61061472706723	0.0	939.3496031811924	236.99472242352124	0.0
190	7.6000000000000005	935.3410354260311	239.39104420419278	0.0	928.365125898489	240.41382567301866	0.0	917.8569956090543	263.7129631090283	0.0	904.6488531686357	287.0589346641559	0.0	898.0203828074498	294.48772941171154	0.0	895.9947715849916	292.73598261324133	0.0	904.86956392489	291.29482650477473	0.0	943.0883022061098	239.57913291071984	0.0	951.0023314682313	262.8118560921281	0.0	959.8902829836788	286.0601680689775	0.0	963.7938256871494	295.18207537361764	0.0	966.7245374274015	293.8763489078876	0.0	959.9580750283459	290.03517545712833	0.0	932.6863718628924	206.21921613354385	0.0	931.3663313727542	188.32346623547056	0.0	931.2237328254525	197.83124856602376	0.0	922.364308175353	212.3054479062897	0.0	916.6880283496641	227.03044953977002	0.0	924.6685144930063	235.42599986593206	0.0	944.0026016774614	210.6201567051445	0.0	950.1177218467103	225.35781371420214	0.0	943.7753127015312	235.23655833410055	0.0
191	7.640000000000001	939.1180901965829	236.86728582481504	0.0	931.9100390091004	238.0669539304509	0.0	921.9625069866023	261.04290515678264	0.0	912.467703741408	285.4723795405792	0.0	906.8771145516625	293.48369906137617	0.0	904.1663807952701	291.68044874773034	0.0	913.2160864601917	289.8727217444655	0.0	946.8747088510074	237.54143782738987	0.0	953.0131151936117	260.99178680128836	0.0	960.4696006120932	285.6302431886193	0.0	963.4520990270369	294.8672394575209	0.0	966.6652842346195	293.5875172284275	0.0	960.8464959458316	289.486724342259	0.0	936.2659666715954	203.6804144040834	0.0	934.910682041685	186.48347543960034	0.0	934.6491826175165	195.64178433644238	0.0	925.7596740202923	209.22259153703783	0.0	920.3169572410376	223.6065020484604	0.0	928.2544019744687	232.4837341440663	0.0	947.8758119258664	207.56046575871784	0.0	954.4853344823282	222.18405881340743	0.0	948.0011638212502	232.33476310884345	0.0
192	7.68	942.6558054242441	234.71953978789753	0.0	935.168321397259	236.2291542425688	0.0	926.5288850906204	258.9444740461323	0.0	919.4825498956467	283.7000869503876	0.0	915.5509794244343	292.15034604722126	0.0	912.0315724555214	290.38194554098243	0.0	920.2649721970034	287.87028974959526	0.0	950.4269706385573	235.84832249598148	0.0	956.0956122960717	259.3225084653485	0.0	962.4268986090627	284.8441603122284	0.0	963.2223167920945	294.3081016383908	0.0	967.1814654253269	293.2586176493102	0.0	962.9691817482615	288.5930861536145	0.0	939.4822450751439	201.51805785802446	0.0	938.0221397654593	184.78242091670737	0.0	937.8984615669269	194.13065136156837	0.0	928.8523181008507	206.53445011603995	0.0	923.5277888950485	221.0622359065208	0.0	931.760150294278	229.41812217952057	0.0	951.4251655671383	204.72874631175497	0.0	958.1216293767379	219.5440380092697	0.0	952.17574920312	229.61674266393916	0.0
